<svg width="73" height="13" viewBox="0 0 73 13" fill="none" xmlns="http://www.w3.org/2000/svg">
<path d="M4.74001 12.105C3.97 12.105 3.28 11.98 2.67 11.73C2.06 11.48 1.57 11.11 1.2 10.62C0.840005 10.13 0.650005 9.53999 0.630005 8.84999H3.36C3.4 9.23999 3.53501 9.53999 3.76501 9.74999C3.99501 9.94999 4.29501 10.05 4.66501 10.05C5.04501 10.05 5.34501 9.96499 5.56501 9.79499C5.78501 9.61499 5.895 9.36999 5.895 9.05999C5.895 8.79999 5.80501 8.58499 5.62501 8.41499C5.45501 8.24499 5.24001 8.10499 4.98001 7.99499C4.73001 7.88499 4.37001 7.75999 3.90001 7.61999C3.22 7.40999 2.665 7.19999 2.235 6.98999C1.805 6.77999 1.435 6.46999 1.125 6.05999C0.815005 5.64999 0.660005 5.11499 0.660005 4.45499C0.660005 3.47499 1.015 2.70999 1.725 2.15999C2.435 1.59999 3.36 1.31999 4.50001 1.31999C5.66 1.31999 6.595 1.59999 7.30501 2.15999C8.01501 2.70999 8.39501 3.47999 8.44501 4.46999H5.67001C5.65001 4.12999 5.525 3.86499 5.295 3.67499C5.065 3.47499 4.77 3.37499 4.41 3.37499C4.1 3.37499 3.85001 3.45999 3.66001 3.62999C3.47001 3.78999 3.37501 4.02499 3.37501 4.33499C3.37501 4.67499 3.535 4.93999 3.855 5.12999C4.175 5.31999 4.67501 5.52499 5.35501 5.74499C6.03501 5.97499 6.585 6.19499 7.005 6.40499C7.43501 6.61499 7.80501 6.91999 8.11501 7.31999C8.42501 7.71999 8.58001 8.23499 8.58001 8.86499C8.58001 9.46499 8.42501 10.01 8.11501 10.5C7.81501 10.99 7.37501 11.38 6.795 11.67C6.215 11.96 5.53 12.105 4.74001 12.105Z" fill="#0045AA"/>
<path d="M18.0485 7.67999C18.0485 7.91999 18.0335 8.16999 18.0035 8.42999H12.1985C12.2385 8.94999 12.4035 9.34999 12.6935 9.62999C12.9935 9.89999 13.3585 10.035 13.7885 10.035C14.4285 10.035 14.8735 9.76499 15.1235 9.22499H17.8535C17.7135 9.77499 17.4585 10.27 17.0885 10.71C16.7285 11.15 16.2735 11.495 15.7235 11.745C15.1735 11.995 14.5585 12.12 13.8785 12.12C13.0585 12.12 12.3285 11.945 11.6885 11.595C11.0485 11.245 10.5485 10.745 10.1885 10.095C9.82852 9.44499 9.64852 8.68499 9.64852 7.81499C9.64852 6.94499 9.82352 6.18499 10.1735 5.53499C10.5335 4.88499 11.0335 4.38499 11.6735 4.03499C12.3135 3.68499 13.0485 3.50999 13.8785 3.50999C14.6885 3.50999 15.4085 3.67999 16.0385 4.01999C16.6685 4.35999 17.1585 4.84499 17.5085 5.47499C17.8685 6.10499 18.0485 6.83999 18.0485 7.67999ZM15.4235 7.00499C15.4235 6.56499 15.2735 6.21499 14.9735 5.95499C14.6735 5.69499 14.2985 5.56499 13.8485 5.56499C13.4185 5.56499 13.0535 5.68999 12.7535 5.93999C12.4635 6.18999 12.2835 6.54499 12.2135 7.00499H15.4235Z" fill="#0045AA"/>
<path d="M21.9667 0.899991V12H19.4017V0.899991H21.9667Z" fill="#0045AA"/>
<path d="M28.0255 5.75999H26.6455V12H24.0805V5.75999H23.1505V3.62999H24.0805V3.38999C24.0805 2.35999 24.3755 1.57999 24.9655 1.04999C25.5555 0.50999 26.4205 0.23999 27.5605 0.23999C27.7505 0.23999 27.8905 0.24499 27.9805 0.25499V2.42999C27.4905 2.39999 27.1455 2.46999 26.9455 2.63999C26.7455 2.80999 26.6455 3.11499 26.6455 3.55499V3.62999H28.0255V5.75999Z" fill="#0045AA"/>
<path d="M34.91 12.105C33.92 12.105 33.01 11.875 32.18 11.415C31.36 10.955 30.705 10.315 30.215 9.49499C29.735 8.66499 29.495 7.73499 29.495 6.70499C29.495 5.67499 29.735 4.74999 30.215 3.92999C30.705 3.10999 31.36 2.46999 32.18 2.00999C33.01 1.54999 33.92 1.31999 34.91 1.31999C35.9 1.31999 36.805 1.54999 37.625 2.00999C38.455 2.46999 39.105 3.10999 39.575 3.92999C40.055 4.74999 40.295 5.67499 40.295 6.70499C40.295 7.73499 40.055 8.66499 39.575 9.49499C39.095 10.315 38.445 10.955 37.625 11.415C36.805 11.875 35.9 12.105 34.91 12.105ZM34.91 9.76499C35.75 9.76499 36.42 9.48499 36.92 8.92499C37.43 8.36499 37.685 7.62499 37.685 6.70499C37.685 5.77499 37.43 5.03499 36.92 4.48499C36.42 3.92499 35.75 3.64499 34.91 3.64499C34.06 3.64499 33.38 3.91999 32.87 4.46999C32.37 5.01999 32.12 5.76499 32.12 6.70499C32.12 7.63499 32.37 8.37999 32.87 8.93999C33.38 9.48999 34.06 9.76499 34.91 9.76499Z" fill="#474747"/>
<path d="M44.287 5.02499C44.587 4.56499 44.962 4.20499 45.412 3.94499C45.862 3.67499 46.362 3.53999 46.912 3.53999V6.25499H46.207C45.567 6.25499 45.087 6.39499 44.767 6.67499C44.447 6.94499 44.287 7.42499 44.287 8.11499V12H41.722V3.62999H44.287V5.02499Z" fill="#474747"/>
<path d="M47.628 7.79999C47.628 6.93999 47.788 6.18499 48.108 5.53499C48.438 4.88499 48.883 4.38499 49.443 4.03499C50.003 3.68499 50.628 3.50999 51.318 3.50999C51.868 3.50999 52.368 3.62499 52.818 3.85499C53.278 4.08499 53.638 4.39499 53.898 4.78499V0.899991H56.463V12H53.898V10.8C53.658 11.2 53.313 11.52 52.863 11.76C52.423 12 51.908 12.12 51.318 12.12C50.628 12.12 50.003 11.945 49.443 11.595C48.883 11.235 48.438 10.73 48.108 10.08C47.788 9.41999 47.628 8.65999 47.628 7.79999ZM53.898 7.81499C53.898 7.17499 53.718 6.66999 53.358 6.29999C53.008 5.92999 52.578 5.74499 52.068 5.74499C51.558 5.74499 51.123 5.92999 50.763 6.29999C50.413 6.65999 50.238 7.15999 50.238 7.79999C50.238 8.43999 50.413 8.94999 50.763 9.32999C51.123 9.69999 51.558 9.88499 52.068 9.88499C52.578 9.88499 53.008 9.69999 53.358 9.32999C53.718 8.95999 53.898 8.45499 53.898 7.81499Z" fill="#474747"/>
<path d="M66.2087 7.67999C66.2087 7.91999 66.1937 8.16999 66.1637 8.42999H60.3587C60.3987 8.94999 60.5637 9.34999 60.8537 9.62999C61.1537 9.89999 61.5187 10.035 61.9487 10.035C62.5887 10.035 63.0337 9.76499 63.2837 9.22499H66.0137C65.8737 9.77499 65.6187 10.27 65.2487 10.71C64.8887 11.15 64.4337 11.495 63.8837 11.745C63.3337 11.995 62.7187 12.12 62.0387 12.12C61.2187 12.12 60.4887 11.945 59.8487 11.595C59.2087 11.245 58.7087 10.745 58.3487 10.095C57.9887 9.44499 57.8087 8.68499 57.8087 7.81499C57.8087 6.94499 57.9837 6.18499 58.3337 5.53499C58.6937 4.88499 59.1937 4.38499 59.8337 4.03499C60.4737 3.68499 61.2087 3.50999 62.0387 3.50999C62.8487 3.50999 63.5687 3.67999 64.1987 4.01999C64.8287 4.35999 65.3187 4.84499 65.6687 5.47499C66.0287 6.10499 66.2087 6.83999 66.2087 7.67999ZM63.5837 7.00499C63.5837 6.56499 63.4337 6.21499 63.1337 5.95499C62.8337 5.69499 62.4587 5.56499 62.0087 5.56499C61.5787 5.56499 61.2137 5.68999 60.9137 5.93999C60.6237 6.18999 60.4437 6.54499 60.3737 7.00499H63.5837Z" fill="#474747"/>
<path d="M70.1268 5.02499C70.4268 4.56499 70.8018 4.20499 71.2518 3.94499C71.7018 3.67499 72.2018 3.53999 72.7518 3.53999V6.25499H72.0468C71.4068 6.25499 70.9268 6.39499 70.6068 6.67499C70.2868 6.94499 70.1268 7.42499 70.1268 8.11499V12H67.5618V3.62999H70.1268V5.02499Z" fill="#474747"/>
</svg>
